#!OML:ASF I:\Actors\actors\Patient Classification 2\Patient 1\Session 1\actor1.ASF
:FULLY-SPECIFIED
:DEGREES
457
root -0.798095 18.7493 5.12912 1.96797 0.311412 -3.36208
lowerback 7.63083 2.45998 -6.09309
upperback 1.97374 2.66278 -4.81037
thorax -2.27577 1.34331 -1.82473
lowerneck -12.2421 1.97833 0.843608
upperneck 34.9925 2.82811 0.108862
head 13.9559 1.35225 0.325576
rclavicle 1.31198e-014 4.13472e-014
rhumerus 35.6143 54.9224 -24.3785
rradius 95.1442
rwrist -10.0541
rhand -6.86626 -52.4729
rfingers 7.12502
rthumb 18.9994 -81.565
lclavicle 1.31198e-014 4.13472e-014
lhumerus 10.5888 -41.7145 53.3963
lradius 80.2821
lwrist 39.7471
lhand -0.538738 -26.0799
lfingers 7.12502
lthumb 25.0743 2.29396
rfemur 0 0 0
rtibia 0
rfoot 0 0
rtoes 0
lfemur -7.20205 -8.21783 -10.0448
ltibia 22.4498
lfoot -22.6628 15.7065
ltoes -54.7074
458
root -0.797049 18.7507 5.1285 2.0517 0.848822 -3.58009
lowerback 7.7384 2.33267 -5.69448
upperback 1.91239 2.50903 -4.91895
thorax -2.37599 1.26822 -2.15004
lowerneck -12.1509 1.86096 0.847191
upperneck 34.9558 2.5488 0.407582
head 13.9123 1.27282 0.400862
rclavicle -2.74323e-014 -1.27222e-014
rhumerus 35.1123 56.229 -21.9015
rradius 96.1654
rwrist -10.5732
rhand -5.19737 -50.8287
rfingers 7.12502
rthumb 20.6038 -79.7552
lclavicle -2.74323e-014 -1.27222e-014
lhumerus 10.8074 -41.972 53.1103
lradius 80.3705
lwrist 39.8351
lhand -0.0934697 -26.125
lfingers 7.12502
lthumb 25.5008 2.18859
rfemur 0 0 0
rtibia 0
rfoot 0 0
rtoes 0
lfemur -7.53951 -8.4514 -9.74555
ltibia 22.5691
lfoot -22.521 15.4232
ltoes -54.6818
459
root -0.78199 18.756 5.11981 2.37234 1.19664 -3.7971
lowerback 7.68179 2.17508 -5.14697
upperback 1.785 2.33763 -5.04154
thorax -2.44977 1.18316 -2.56598
lowerneck -12.0945 1.82184 0.864347
upperneck 34.8789 2.42607 0.574681
head 13.8622 1.24448 0.444569
rclavicle -2.0276e-014 -1.90833e-014
rhumerus 35.6139 58.4298 -18.4806
rradius 98.303
rwrist -11.9188
rhand -4.95661 -52.6946
rfingers 7.12502
rthumb 20.8351 -81.5958
lclavicle -2.0276e-014 -1.90833e-014
lhumerus 10.8418 -41.9925 53.0078
lradius 80.475
lwrist 39.9235
lhand 0.013536 -26.1767
lfingers 7.12502
lthumb 25.6033 2.12214
rfemur 0 0 0
rtibia 0
rfoot 0 0
rtoes 0
lfemur -8.13474 -8.97773 -9.51271
ltibia 22.7143
lfoot -22.569 15.6155
ltoes -54.6267
460
root -0.791067 18.7596 5.12705 2.52678 1.83748 -4.00197
lowerback 7.69798 1.91434 -4.99158
upperback 1.71781 2.00044 -4.98946
thorax -2.52732 1.01651 -2.5669
lowerneck -12.1164 1.83821 0.778161
upperneck 34.8568 2.46453 0.598458
head 13.8552 1.2525 0.474971
rclavicle 1.63003e-014 -6.36111e-015
rhumerus 37.7895 61.3781 -13.905
rradius 101.093
rwrist -13.2322
rhand -3.27948 -53.2921
rfingers 7.12502
rthumb 22.4457 -82.0078
lclavicle 1.63003e-014 -6.36111e-015
lhumerus 10.5816 -41.8921 53.1734
lradius 80.5616
lwrist 39.9882
lhand -0.158686 -26.2645
lfingers 7.12502
lthumb 25.4384 2.05802
rfemur 0 0 0
rtibia 0
rfoot 0 0
rtoes 0
lfemur -8.5608 -9.35586 -9.17245
ltibia 22.8461
lfoot -22.4678 15.4969
ltoes -54.8157
461
root -0.804541 18.7626 5.13516 2.70016 2.304 -4.13091
lowerback 7.72317 1.67184 -4.95455
upperback 1.61721 1.67418 -4.9478
thorax -2.64847 0.856329 -2.51471
lowerneck -12.148 1.9133 0.85023
upperneck 34.7981 2.61922 0.410066
head 13.8408 1.30297 0.40977
rclavicle -2.38542e-015 1.90833e-014
rhumerus 41.8858 64.3558 -8.55413
rradius 103.807
rwrist -14.7029
rhand -2.85824 -51.6959
rfingers 7.12502
rthumb 22.85 -80.3623
lclavicle -2.38542e-015 1.90833e-014
lhumerus 10.2129 -41.756 53.274
lradius 80.6123
lwrist 40.0778
lhand -0.285552 -26.2704
lfingers 7.12502
lthumb 25.3168 2.06939
rfemur 0 0 0
rtibia 0
rfoot 0 0
rtoes 0
lfemur -8.92805 -9.65796 -8.9081
ltibia 22.9268
lfoot -22.4228 15.404
ltoes -54.818
462
root -0.817686 18.7625 5.14154 2.81223 2.47206 -4.16972
lowerback 7.81441 1.52914 -5.0116
upperback 1.50084 1.46424 -4.94305
thorax -2.82331 0.755027 -2.4624
lowerneck -12.1149 2.00678 1.10037
upperneck 34.7304 2.76623 0.180522
head 13.813 1.36811 0.294763
rclavicle -5.96354e-015 -1.90833e-014
rhumerus 47.5135 66.7845 -2.88177
rradius 106.428
rwrist -16.1579
rhand -0.394514 -52.3608
rfingers 7.12502
rthumb 25.2124 -80.7153
lclavicle -5.96354e-015 -1.90833e-014
lhumerus 9.82318 -41.6748 53.3407
lradius 80.6033
lwrist 40.0998
lhand -0.362668 -26.2342
lfingers 7.12502
lthumb 25.243 2.11601
rfemur 0 0 0
rtibia 0
rfoot 0 0
rtoes 0
lfemur -9.08473 -9.90614 -8.79379
ltibia 22.9183
lfoot -22.4811 15.4239
ltoes -54.6323
463
root -0.826433 18.7607 5.14344 2.83602 2.24752 -4.14491
lowerback 7.94732 1.54336 -5.2212
upperback 1.41196 1.44933 -4.86407
thorax -2.99721 0.751814 -2.26794
lowerneck -12.1238 2.07831 1.19138
upperneck 34.6967 2.8899 0.0493288
head 13.8052 1.41557 0.244676
rclavicle -6.75868e-015 2.54444e-014
rhumerus 54.1222 68.4485 2.97748
rradius 108.91
rwrist -17.4425
rhand -4.57425 -53.1222
rfingers 7.12502
rthumb 21.2024 -81.9827
lclavicle -6.75868e-015 2.54444e-014
lhumerus 9.47291 -41.5845 53.6255
lradius 80.5352
lwrist 40.0014
lhand -0.522717 -26.0043
lfingers 7.12502
lthumb 25.0896 2.36743
rfemur 0 0 0
rtibia 0
rfoot 0 0
rtoes 0
lfemur -8.9926 -10.1582 -8.83029
ltibia 22.8558
lfoot -22.7371 15.7521
ltoes -54.4736
464
root -0.831128 18.7588 5.1395 2.79026 1.70693 -4.0131
lowerback 8.10285 1.69925 -5.52728
upperback 1.38679 1.61497 -4.79584
thorax -3.12044 0.838186 -2.05011
lowerneck -12.1695 2.11672 1.09677
upperneck 34.6001 2.96087 0.0688298
head 13.7703 1.43674 0.279516
rclavicle 2.78299e-015 3.18055e-014
rhumerus 56.9805 68.6479 4.11329
rradius 110.464
rwrist -18.8506
rhand -1.80633 -52.9821
rfingers 7.12502
rthumb 23.8591 -81.5202
lclavicle 2.78299e-015 3.18055e-014
lhumerus 9.31546 -41.5112 53.8793
lradius 80.4902
lwrist 39.8217
lhand -0.758618 -25.7644
lfingers 7.12502
lthumb 24.8636 2.63873
rfemur 0 0 0
rtibia 0
rfoot 0 0
rtoes 0
lfemur -8.69162 -10.1641 -9.03923
ltibia 22.7062
lfoot -22.9471 16.2287
ltoes -54.5014
